<?xml version="1.0" encoding="UTF-8"?>
<svg xmlns="http://www.w3.org/2000/svg" xmlns:xlink="http://www.w3.org/1999/xlink" viewBox="0 0 64 64" width="64px" height="64px">
<g id="surface23605261">
<path style=" stroke:none;fill-rule:nonzero;fill:rgb(18.039216%,80.000001%,44.313726%);fill-opacity:1;" d="M 32 64 C 14.328125 64 0 49.671875 0 32 C 0 14.328125 14.328125 0 32 0 C 49.671875 0 64 14.328125 64 32 C 64 49.671875 49.671875 64 32 64 Z M 32 64 "/>
<path style=" stroke:none;fill-rule:nonzero;fill:rgb(18.039216%,80.000001%,44.313726%);fill-opacity:1;" d="M 32 12.800781 C 21.394531 12.800781 12.800781 21.394531 12.800781 32 C 12.800781 42.605469 21.394531 51.199219 32 51.199219 C 42.605469 51.199219 51.199219 42.605469 51.199219 32 C 51.199219 21.394531 42.605469 12.800781 32 12.800781 Z M 32 12.800781 "/>
<path style=" stroke:none;fill-rule:nonzero;fill:rgb(100%,100%,100%);fill-opacity:1;" d="M 32 16.398438 C 23.382812 16.398438 16.398438 23.382812 16.398438 32 C 16.398438 40.617188 23.382812 47.601562 32 47.601562 C 40.617188 47.601562 47.601562 40.617188 47.601562 32 C 47.601562 23.382812 40.617188 16.398438 32 16.398438 Z M 32 16.398438 "/>
<path style="fill:none;stroke-width:8.0625;stroke-linecap:butt;stroke-linejoin:miter;stroke:rgb(18.039216%,80.000001%,44.313726%);stroke-opacity:1;stroke-miterlimit:10;" d="M 86 34.4021 C 57.497803 34.4021 34.4021 57.497803 34.4021 86 C 34.4021 114.502197 57.497803 137.5979 86 137.5979 C 114.502197 137.5979 137.5979 114.502197 137.5979 86 C 137.5979 57.497803 114.502197 34.4021 86 34.4021 Z M 86 34.4021 " transform="matrix(0.372093,0,0,0.372093,0,0)"/>
<path style="fill:none;stroke-width:8.0625;stroke-linecap:round;stroke-linejoin:miter;stroke:rgb(18.039216%,80.000001%,44.313726%);stroke-opacity:1;stroke-miterlimit:10;" d="M 86 62.3479 L 86 109.6521 M 62.3479 86 L 109.6521 86 " transform="matrix(0.372093,0,0,0.372093,0,0)"/>
</g>
</svg>
